# xmcd
#
# Track frame offsets:
#	150
#	16043
#	34984
#	46211
#	60329
#	78907
#	93704
#	107082
#	117880
#	138081
#	151366
#	175324
#	190500
#	200652
#	217253
#	228830
#	233089
#
# Disc length: 3350 seconds
#
# Revision: 1
# Processed by: cddbd v1.5.1PL0 Copyright (c) Steve Scherf et al.
# Submitted via: audiograbber 1.83.01
#
DISCID=d90d1411
DTITLE=Steve Forbert - Solo Live in Bethlehem
DYEAR=2002
DGENRE=
TTITLE0=It's Been a Long Time
TTITLE1=Goin' Down to Laurel
TTITLE2=My Carolina Sunshine Girl
TTITLE3=No Use Running from the Blues
TTITLE4=Good Planets Are Hard to Find
TTITLE5=It Sure Was Better Back Then
TTITLE6=Starstruck
TTITLE7=What Kinda Guy?
TTITLE8=Baby, Don't
TTITLE9=Miss the Mississippi and You
TTITLE10=Rose Marie
TTITLE11=So Good to Feel Good Again
TTITLE12=Lonesome Cowboy Bill's Song
TTITLE13=About a Dream
TTITLE14=Rock While I Can Rock
TTITLE15=Goodnight
TTITLE16=Romeo's Tune
EXTD=Recorded live September 13, 2002, early show
EXTT0=
EXTT1=
EXTT2=
EXTT3=
EXTT4=
EXTT5=
EXTT6=
EXTT7=
EXTT8=
EXTT9=
EXTT10=
EXTT11=
EXTT12=
EXTT13=
EXTT14=
EXTT15=
EXTT16=
PLAYORDER=
